<?xml version="1.0" standalone="no"?>
<!DOCTYPE svg PUBLIC "-//W3C//DTD SVG 1.1//EN" "http://www.w3.org/Graphics/SVG/1.1/DTD/svg11.dtd" >
<!--
2013-9-30: Created.
-->
<svg>
<metadata>
Created by iconfont
</metadata>
<defs>

<font id="iconfont" horiz-adv-x="1024" >
  <font-face
    font-family="iconfont"
    font-weight="500"
    font-stretch="normal"
    units-per-em="1024"
    ascent="896"
    descent="-128"
  />
    <missing-glyph />
    
    <glyph glyph-name="x" unicode="x" horiz-adv-x="1001"
d="M281 543q-27 -1 -53 -1h-83q-18 0 -36.5 -6t-32.5 -18.5t-23 -32t-9 -45.5v-76h912v41q0 16 -0.5 30t-0.5 18q0 13 -5 29t-17 29.5t-31.5 22.5t-49.5 9h-133v-97h-438v97zM955 310v-52q0 -23 0.5 -52t0.5 -58t-10.5 -47.5t-26 -30t-33 -16t-31.5 -4.5q-14 -1 -29.5 -0.5
t-29.5 0.5h-32l-45 128h-439l-44 -128h-29h-34q-20 0 -45 1q-25 0 -41 9.5t-25.5 23t-13.5 29.5t-4 30v167h911zM163 247q-12 0 -21 -8.5t-9 -21.5t9 -21.5t21 -8.5q13 0 22 8.5t9 21.5t-9 21.5t-22 8.5zM316 123q-8 -26 -14 -48q-5 -19 -10.5 -37t-7.5 -25t-3 -15t1 -14.5
t9.5 -10.5t21.5 -4h37h67h81h80h64h36q23 0 34 12t2 38q-5 13 -9.5 30.5t-9.5 34.5q-5 19 -11 39h-368zM336 498v228q0 11 2.5 23t10 21.5t20.5 15.5t34 6h188q31 0 51.5 -14.5t20.5 -52.5v-227h-327z" />
    

    
    <glyph glyph-name="wxpay" unicode="&#58881;" d="M413.961481 249.60948099999996a35.934815 35.934815 0 0 0-17.123555-4.020148c-14.506667 0-26.358519 8.059259-32.95763 20.15763l-2.654815 5.366518-104.144592 231.158519c-1.327407 2.673778-1.327407 5.366519-1.327408 8.040296 0 10.752 7.926519 18.830222 18.469926 18.830223 3.963259 0 7.907556-1.34637 11.870815-4.039112l122.614519-88.689777c9.216-5.385481 19.77837-9.40563 31.630222-9.40563 6.599111 0 13.198222 1.327407 19.77837 4.020148l574.824297 260.702815C932.105481 815.369481 762.026667 896 569.552593 896 255.772444 896 0 679.632593 0 412.216889c0-145.123556 76.458667-276.821333 196.456296-365.511111 9.216-6.731852 15.815111-18.830222 15.815111-30.90963 0-4.039111-1.327407-8.078222-2.654814-12.09837-9.216-36.295111-25.031111-95.42163-25.031112-98.095408-1.327407-4.039111-2.654815-9.40563-2.654814-14.791111 0-10.752 7.926519-18.811259 18.469926-18.811259 3.944296 0 7.907556 1.327407 10.543407 4.039111l123.922963 73.898667c9.234963 5.385481 19.77837 9.40563 30.340741 9.405629 5.271704 0 11.851852-1.327407 17.123555-2.673777 58.026667-17.483852 121.306074-26.889481 185.893926-26.889482C882.005333-70.21985199999995 1137.777778 146.147556 1137.777778 413.582222c0 80.630519-23.722667 157.221926-64.606815 224.426667L417.943704 252.30222200000003l-3.944297-2.692741z"  horiz-adv-x="1137" />

    
    <glyph glyph-name="alipay" unicode="&#58882;" d="M248.8832 339.7632c94.6176 9.335467 182.254933-26.794667 285.610667-77.243733-72.669867-94.7712-165.2224-153.975467-257.809067-153.975467-159.317333 0-206.421333 125.508267-127.6928 194.116267 26.282667 23.210667 74.2912 34.56 99.8912 37.102933zM843.093333 253.0304c-40.96 13.704533-95.9488 34.696533-157.201066 56.849067 36.795733 63.931733 66.1504 136.772267 85.469866 215.893333H569.514667v72.686933h247.261866v40.584534H569.514667V760.2517330000001h-100.9152c-17.7152 0-17.7152-17.493333-17.7152-17.493333v-103.714133H200.8064v-40.584534H450.901333v-72.704H244.411733v-40.567466h400.469334a713.745067 713.745067 0 0 0-57.685334-140.970667c-129.928533 42.888533-268.5952 77.653333-355.703466 56.251733-55.688533-13.738667-91.562667-38.2464-112.674134-63.880533C22.084267 218.897067 91.460267 40.106667000000016 295.765333 40.106667000000016c120.797867 0 237.175467 67.3792 327.3728 178.346666C757.640533 153.770667 1024 42.717866999999956 1024 42.717866999999956v-6.7072C1024-54.56213300000002 950.647467-128 860.023467-128H164.0448A164.010667 164.010667 0 0 0 0 36.01066700000001V731.972267A164.010667 164.010667 0 0 0 164.027733 896h695.995734C950.647467 896 1024 822.562133 1024 731.9552v-530.944s-33.450667 2.628267-180.906667 52.0192z"  horiz-adv-x="1024" />

    
    <glyph glyph-name="problem" unicode="&#58883;" d="M668.519083 834.440533A121.412267 121.412267 0 0 1 563.149483 896a121.8048 121.8048 0 0 1-105.506134-61.559467L15.736149 53.46986700000002a121.890133 121.890133 0 0 1 0.682667-121.019734A121.019733 121.019733 0 0 1 121.276416-128h883.933867a120.797867 120.797867 0 0 1 104.669866 60.450133 121.207467 121.207467 0 0 1 0.682667 121.0368l-442.026667 780.970667z m-50.210134-813.056a68.096 68.096 0 0 0-47.018666-17.9712 69.7344 69.7344 0 0 0-47.581867 17.834667c-13.5168 11.758933-20.411733 28.3648-20.411733 49.527467 0 18.5344 6.485333 34.440533 19.575466 47.445333 12.834133 12.987733 28.689067 19.490133 47.581867 19.490133 18.773333 0 34.7648-6.485333 48.128-19.490133 13.243733-13.0048 19.8656-28.7744 19.8656-47.445333 0-21.026133-6.621867-37.495467-20.138667-49.390934z m17.117867 497.681067L616.107349 297.76213299999995c-2.065067-26.282667-6.485333-46.4896-13.380266-60.586666-6.894933-14.114133-18.193067-21.026133-34.065067-21.026134-16.128 0-27.306667 6.775467-33.655467 20.3264-6.1952 13.704533-10.752 34.440533-13.380266 62.122667l-14.472534 214.9376c-2.628267 41.7792-3.9936 71.936-3.9936 90.197333 0 24.746667 6.485333 44.117333 19.575467 58.077867 12.834133 13.994667 30.071467 20.8896 51.165867 20.8896 25.514667 0 42.769067-8.977067 51.456-26.692267 8.686933-17.834667 13.090133-43.434667 13.090133-77.038933 0-19.5072-1.092267-39.560533-3.0208-59.904z"  horiz-adv-x="1126" />

    
    <glyph glyph-name="all" unicode="&#58886;" d="M512.045227-128c-7.065551 0-14.199367 1.467723-20.787055 4.403169l-460.796774 204.798567A51.199642 51.199642 0 0 0 72.06964 174.76054699999997L512.045227-20.822084000000018l440.00972 195.582631a51.199642 51.199642 0 0 0 41.608242-93.592945l-460.796775-204.798566A51.336174 51.336174 0 0 0 512.045227-128z m0 255.998208c-7.065551 0-14.199367 1.467723-20.787055 4.403169l-460.796774 204.798567A51.199642 51.199642 0 0 0 72.06964 430.758755L512.045227 235.21025799999995l440.00972 195.58263a51.199642 51.199642 0 0 0 41.608242-93.592944l-460.796775-204.798567a51.336174 51.336174 0 0 0-20.821187-4.437302zM993.663189 686.756963l-460.796775 204.798567a50.994843 50.994843 0 0 1-41.608242 0l-460.796774-204.798567a51.233775 51.233775 0 0 1 0-93.592944l460.796774-204.798567a51.131375 51.131375 0 0 1 41.608242 0l460.796775 204.798567a51.267908 51.267908 0 0 1 0 93.592944z"  horiz-adv-x="1024" />

    
    <glyph glyph-name="progress-flag4" unicode="&#58887;" d="M211.862069 683.7848280000001A176.798897 176.798897 0 0 0 388.413793 860.689655h1765.517241c97.527172 0 176.551724-78.81269 176.551725-176.551724v-600.275862c0-97.527172-79.201103-176.551724-176.551725-176.551724H388.413793c-97.527172 0-176.551724 78.706759-176.551724 176.763586v151.799172l-141.241379 142.583173 141.241379 134.567724V683.820138z"  horiz-adv-x="2365" />

    
    <glyph glyph-name="progress-flag3" unicode="&#58888;" d="M211.862069 683.7848280000001A176.798897 176.798897 0 0 0 388.413793 860.689655h1765.517241c97.527172 0 176.551724-78.81269 176.551725-176.551724v-600.275862c0-97.527172-79.201103-176.551724-176.551725-176.551724H388.413793c-97.527172 0-176.551724 78.706759-176.551724 176.763586v151.799172l-141.241379 142.583173 141.241379 134.567724V683.820138z"  horiz-adv-x="2330" />

    
    <glyph glyph-name="progress-flag2" unicode="&#58889;" d="M211.862069 683.7848280000001A176.798897 176.798897 0 0 0 388.413793 860.689655h1765.517241c97.527172 0 176.551724-78.81269 176.551725-176.551724v-600.275862c0-97.527172-79.201103-176.551724-176.551725-176.551724H388.413793c-97.527172 0-176.551724 78.706759-176.551724 176.763586v151.799172l-141.241379 142.583173 141.241379 134.567724V683.820138z"  horiz-adv-x="2365" />

    
    <glyph glyph-name="milepost" unicode="&#58890;" d="M160 831.776C160 867.2 188.48 896 223.712 896H800.32A64 64 0 0 0 864 831.776v-735.552A64 64 0 0 0 799.936 32H694.08c-51.264 0-148.384-160-189.536-160-41.152 0-140.96 159.776-179.744 160C285.984 32.224000000000046 224 32.063999999999965 224 32.063999999999965A64.032 64.032 0 0 0 160 96.22400000000005V831.776z"  horiz-adv-x="1024" />

    
    <glyph glyph-name="progress-mark" unicode="&#58891;" d="M0.00032 736c0 88.384 71.776 160 160 160h1600c88.384 0 160-71.424 160-160v-544c0-88.384-71.488-160-160-160H1174.08032c-51.264 0-148.384-160-189.536-160-41.152 0-140.96 159.776-179.744 160-38.816 0.224-645.12 0.032-645.12 0.032A159.68 159.68 0 0 0 0.00032 192V736.032z"  horiz-adv-x="1920" />

    
    <glyph glyph-name="progress-flag" unicode="&#58892;" d="M151.703704 705.991111A189.895111 189.895111 0 0 0 341.333333 896h1896.296297c104.751407 0 189.62963-84.650667 189.629629-189.62963v-644.74074c0-104.751407-85.067852-189.62963-189.629629-189.62963H341.333333c-104.751407 0-189.62963 84.536889-189.629629 189.857185v163.043556l-151.703704 153.144889 151.703704 144.535703V706.029037z"  horiz-adv-x="2427" />

    
    <glyph glyph-name="check-circle" unicode="&#59261;" d="M699 543h-46.9c-10.2 0-19.9-4.9-25.9-13.3L469 311.70000000000005l-71.2 98.8c-6 8.3-15.6 13.3-25.9 13.3H325c-6.5 0-10.3-7.4-6.5-12.7l124.6-172.8c12.7-17.7 39-17.7 51.7 0l210.6 292c3.9 5.3 0.1 12.7-6.4 12.7zM512 832C264.6 832 64 631.4 64 384s200.6-448 448-448 448 200.6 448 448S759.4 832 512 832z m0-820c-205.4 0-372 166.6-372 372s166.6 372 372 372 372-166.6 372-372-166.6-372-372-372z"  horiz-adv-x="1024" />

    
    <glyph glyph-name="close-circle" unicode="&#59262;" d="M685.4 541.2c0 4.4-3.6 8-8 8l-66-0.3L512 430.4l-99.3 118.4-66.1 0.3c-4.4 0-8-3.5-8-8 0-1.9 0.7-3.7 1.9-5.2l130.1-155L340.5 226c-1.2-1.5-1.9-3.3-1.9-5.2 0-4.4 3.6-8 8-8l66.1 0.3L512 331.6l99.3-118.4 66-0.3c4.4 0 8 3.5 8 8 0 1.9-0.7 3.7-1.9 5.2L553.5 381l130.1 155c1.2 1.4 1.8 3.3 1.8 5.2zM512 831C264.6 831 64 630.4 64 383s200.6-448 448-448 448 200.6 448 448S759.4 831 512 831z m0-820c-205.4 0-372 166.6-372 372s166.6 372 372 372 372-166.6 372-372-166.6-372-372-372z"  horiz-adv-x="1024" />

    
    <glyph glyph-name="minus-circle" unicode="&#59264;" d="M696 416H328c-4.4 0-8-3.6-8-8v-48c0-4.4 3.6-8 8-8h368c4.4 0 8 3.6 8 8v48c0 4.4-3.6 8-8 8zM512 832C264.6 832 64 631.4 64 384s200.6-448 448-448 448 200.6 448 448S759.4 832 512 832z m0-820c-205.4 0-372 166.6-372 372s166.6 372 372 372 372-166.6 372-372-166.6-372-372-372z"  horiz-adv-x="1024" />

    
    <glyph glyph-name="plus-circle" unicode="&#59265;" d="M696 416H544V568c0 4.4-3.6 8-8 8h-48c-4.4 0-8-3.6-8-8v-152H328c-4.4 0-8-3.6-8-8v-48c0-4.4 3.6-8 8-8h152v-152c0-4.4 3.6-8 8-8h48c4.4 0 8 3.6 8 8V352h152c4.4 0 8 3.6 8 8v48c0 4.4-3.6 8-8 8zM512 832C264.6 832 64 631.4 64 384s200.6-448 448-448 448 200.6 448 448S759.4 832 512 832z m0-820c-205.4 0-372 166.6-372 372s166.6 372 372 372 372-166.6 372-372-166.6-372-372-372z"  horiz-adv-x="1024" />

    
    <glyph glyph-name="right1" unicode="&#59371;" d="M765.7 409.2L314.9 761.3c-5.3 4.1-12.9 0.4-12.9-6.3v-77.3c0-4.9 2.3-9.6 6.1-12.6l360-281.1-360-281.1c-3.9-3-6.1-7.7-6.1-12.6V13c0-6.7 7.7-10.4 12.9-6.3l450.8 352.1c16.4 12.8 16.4 37.6 0 50.4z"  horiz-adv-x="1024" />

    
    <glyph glyph-name="left1" unicode="&#59372;" d="M724 677.7V755c0 6.7-7.7 10.4-12.9 6.3L260.3 409.2c-16.4-12.8-16.4-37.5 0-50.3l450.8-352.1c5.3-4.1 12.9-0.4 12.9 6.3v77.3c0 4.9-2.3 9.6-6.1 12.6l-360 281 360 281.1c3.8 3 6.1 7.7 6.1 12.6z"  horiz-adv-x="1024" />

    
    <glyph glyph-name="up" unicode="&#59373;" d="M890.5 140.7L537.9 626.8c-12.8 17.6-39 17.6-51.7 0L133.5 140.7c-3.8-5.3-0.1-12.7 6.5-12.7h75c5.1 0 9.9 2.5 12.9 6.6L512 526.2l284.1-391.6c3-4.1 7.8-6.6 12.9-6.6h75c6.5 0 10.3 7.4 6.5 12.7z"  horiz-adv-x="1024" />

    
    <glyph glyph-name="down" unicode="&#59374;" d="M884 640h-75c-5.1 0-9.9-2.5-12.9-6.6L512 241.8 227.9 633.4c-3 4.1-7.8 6.6-12.9 6.6h-75c-6.5 0-10.3-7.4-6.5-12.7l352.6-486.1c12.8-17.6 39-17.6 51.7 0l352.6 486.1c3.9 5.3 0.1 12.7-6.4 12.7z"  horiz-adv-x="1024" />

    
    <glyph glyph-name="check1" unicode="&#59388;" d="M912 706h-69.9c-9.8 0-19.1-4.5-25.1-12.2L404.7 171.5 207 422c-6.1 7.7-15.3 12.2-25.1 12.2H112c-6.7 0-10.4-7.7-6.3-12.9l273.9-347c12.8-16.2 37.4-16.2 50.3 0l488.4 618.9c4.1 5.1 0.4 12.8-6.3 12.8z"  horiz-adv-x="1024" />

    
    <glyph glyph-name="close1" unicode="&#59389;" d="M563.8 384l262.5 312.9c4.4 5.2 0.7 13.1-6.1 13.1h-79.8c-4.7 0-9.2-2.1-12.3-5.7L511.6 446.2 295.1 704.3c-3 3.6-7.5 5.7-12.3 5.7H203c-6.8 0-10.5-7.9-6.1-13.1L459.4 384 196.9 71.1c-4.4-5.2-0.7-13.1 6.1-13.1h79.8c4.7 0 9.2 2.1 12.3 5.7l216.5 258.1 216.5-258.1c3-3.6 7.5-5.7 12.3-5.7h79.8c6.8 0 10.5 7.9 6.1 13.1L563.8 384z"  horiz-adv-x="1024" />

    
    <glyph glyph-name="minus" unicode="&#59390;" d="M872 422H152c-4.4 0-8-3.6-8-8v-60c0-4.4 3.6-8 8-8h720c4.4 0 8 3.6 8 8v60c0 4.4-3.6 8-8 8z"  horiz-adv-x="1024" />

    
    <glyph glyph-name="plus" unicode="&#59391;" d="M848 422H550V744h-76v-322H176c-4.4 0-8-3.6-8-8v-60c0-4.4 3.6-8 8-8h298v-322h76V346h298c4.4 0 8 3.6 8 8v60c0 4.4-3.6 8-8 8z"  horiz-adv-x="1024" />

    
    <glyph glyph-name="check-circle-fill" unicode="&#59460;" d="M512 832C264.6 832 64 631.4 64 384s200.6-448 448-448 448 200.6 448 448S759.4 832 512 832z m193.5-301.7l-210.6-292c-12.7-17.7-39-17.7-51.7 0L318.5 411.1c-3.8 5.3 0 12.7 6.5 12.7h46.9c10.2 0 19.9-4.9 25.9-13.3l71.2-98.8 157.2 218c6 8.3 15.6 13.3 25.9 13.3H699c6.5 0 10.3-7.4 6.5-12.7z"  horiz-adv-x="1024" />

    
    <glyph glyph-name="minus-circle-fill" unicode="&#59461;" d="M512 832C264.6 832 64 631.4 64 384s200.6-448 448-448 448 200.6 448 448S759.4 832 512 832z m192-472c0-4.4-3.6-8-8-8H328c-4.4 0-8 3.6-8 8v48c0 4.4 3.6 8 8 8h368c4.4 0 8-3.6 8-8v-48z"  horiz-adv-x="1024" />

    
    <glyph glyph-name="close-circle-fill" unicode="&#59462;" d="M512 832C264.6 832 64 631.4 64 384s200.6-448 448-448 448 200.6 448 448S759.4 832 512 832z m165.4-618.2l-66 0.3L512 332.6l-99.3-118.4-66.1-0.3c-4.4 0-8 3.5-8 8 0 1.9 0.7 3.7 1.9 5.2l130.1 155L340.5 537c-1.2 1.5-1.9 3.3-1.9 5.2 0 4.4 3.6 8 8 8l66.1-0.3L512 431.4l99.3 118.4 66 0.3c4.4 0 8-3.5 8-8 0-1.9-0.7-3.7-1.9-5.2L553.5 382l130-155c1.2-1.5 1.9-3.3 1.9-5.2 0-4.4-3.6-8-8-8z"  horiz-adv-x="1024" />

    
    <glyph glyph-name="plus-circle-fill" unicode="&#59463;" d="M512 832C264.6 832 64 631.4 64 384s200.6-448 448-448 448 200.6 448 448S759.4 832 512 832z m192-472c0-4.4-3.6-8-8-8H544v-152c0-4.4-3.6-8-8-8h-48c-4.4 0-8 3.6-8 8V352H328c-4.4 0-8 3.6-8 8v48c0 4.4 3.6 8 8 8h152V568c0 4.4 3.6 8 8 8h48c4.4 0 8-3.6 8-8v-152h152c4.4 0 8-3.6 8-8v-48z"  horiz-adv-x="1024" />

    


  </font>
</defs>
</svg>
